<?xml version="1.0" encoding="UTF-8"?>
<svg width="32px" height="32px" viewBox="0 0 32 32" version="1.1" xmlns="http://www.w3.org/2000/svg">
    <g stroke="none" stroke-width="1" fill="none" fill-rule="evenodd">
        <circle fill="#F7931A" cx="16" cy="16" r="16"/>
        <path d="M21.78,12.426c0.314-2.096-1.283-3.223-3.465-3.975l0.708-2.84-1.728-0.43-0.69,2.765c-0.454-0.114-0.92-0.22-1.385-0.326l0.695-2.783L15.596,5l-0.708,2.839c-0.376-0.086-0.745-0.17-1.104-0.26l0.002-0.009-2.384-0.595-0.46,1.846s1.283,0.294,1.256,0.312c0.7,0.175,0.826,0.638,0.805,1.006l-0.806,3.235c0.048,0.012,0.11,0.03,0.179,0.054l-0.18-0.045-1.12,4.488c-0.083,0.209-0.293,0.523-0.767,0.404c0.017,0.025-1.256-0.313-1.256-0.313l-0.858,1.978l2.25,0.561c0.418,0.105,0.828,0.215,1.231,0.318l-0.715,2.872l1.727,0.43l0.708-2.84c0.472,0.127,0.93,0.245,1.378,0.357l-0.706,2.828l1.728,0.43l0.715-2.866c2.948,0.558,5.164,0.333,6.097-2.333c0.752-2.146-0.037-3.385-1.588-4.192c1.13-0.26,1.98-1.003,2.207-2.538Zm-3.95,5.538c-0.533,2.147-4.148,0.986-5.32,0.695l0.95-3.805c1.172,0.293,4.929,0.872,4.37,3.11Zm0.535-5.569c-0.487,1.953-3.495,0.961-4.47,0.716l0.861-3.45c0.975,0.243,4.118,0.696,3.609,2.734Z" fill="#FFFFFF"/>
    </g>
</svg> 